<?xml version="1.0" encoding="UTF-8"?>
<svg id="Tatra_banka_Logo-Square" data-name="Tatra banka_Logo-Square" xmlns="http://www.w3.org/2000/svg" viewBox="0 0 2252.77 2233.07">
  <defs>
    <style>
      .cls-1 {
        fill: #000537;
        stroke-width: 0px;
      }
    </style>
  </defs>
  <path class="cls-1" d="M1489.57,1689.35h22.55v-35.18l17.25-16.75,30.24,51.93h28.7l-41.34-68.84,46.46-45.61h-30.39l-50.91,49.54v-49.54h-22.55v114.44h-.01ZM1361.28,1689.35h22.55v-79.26l50.05,79.26h25.45v-114.44h-22.55v80.29l-50.22-80.29h-25.28v114.44ZM1269.55,1643.4l17.76-49.54,18.11,49.54h-35.87ZM1228.21,1689.35h24.76l9.57-26.64h50.05l9.74,26.64h24.77l-44.76-114.44h-29.38l-44.76,114.44h.01ZM1148.1,1621.37v-27.33h28.7c9.91,0,15.89,5.13,15.89,13.67s-5.98,13.66-15.89,13.66h-28.7ZM1125.55,1689.35h59.44c21.7,0,35.7-13.15,35.7-32.79,0-10.77-5.81-22.04-16.4-27.16,7.51-5.47,11.61-14.53,11.61-23.4,0-18.62-13.15-31.09-33.65-31.09h-56.71v114.44ZM1148.1,1669.89v-29.21h32.29c10.25,0,16.74,5.81,16.74,14.35,0,9.39-6.49,14.86-16.74,14.86h-32.29ZM997.95,1643.4l17.76-49.54,18.11,49.54h-35.87ZM956.61,1689.35h24.77l9.57-26.64h50.05l9.74,26.64h24.76l-44.76-114.44h-29.38l-44.76,114.44h0ZM873.94,1625.13v-31.09h31.26c10.93,0,17.59,5.81,17.59,15.55s-6.66,15.54-17.59,15.54h-31.26ZM851.39,1689.35h22.55v-44.92h25.11c15.04,0,19.64,5.47,21.01,19.13l1.36,14.53c.34,3.59,1.02,7.86,3.42,11.27h24.25c-2.39-3.58-4.44-10.25-4.95-14.52l-2.05-18.44c-1.02-9.4-4.27-17.26-12.98-21.52,11.1-5.3,17.08-16.58,17.08-27.5,0-19.31-14-32.46-35.7-32.46h-59.1v114.44-.02ZM776.57,1689.35h23.06v-95.32h34.68v-19.13h-92.41v19.13h34.68v95.32h-.01ZM670.49,1643.4l17.76-49.54,18.11,49.54h-35.87ZM629.15,1689.35h24.77l9.57-26.64h50.05l9.74,26.64h24.77l-44.76-114.44h-29.38l-44.76,114.44ZM577.57,1689.35h23.06v-95.32h34.68v-19.13h-92.41v19.13h34.68v95.32h-.01ZM1632.72,1643.4l17.76-49.54,18.11,49.54h-35.87ZM1591.02,1689.35h24.77l9.56-26.64h50.05l9.74,26.64h24.76l-44.75-114.44h-29.38l-44.76,114.44h.01Z"/>
  <path class="cls-1" d="M542.9,1468.9h1167v-925h-191v19h172v887H562.9l-1-887h630v-19h-649v925Z"/>
  <polygon class="cls-1" points="958.15 799.9 668.9 1343.9 813.9 1343.9 1103.15 799.9 958.15 799.9"/>
  <polygon class="cls-1" points="1299.27 543.9 873.9 1343.9 1018.9 1343.9 1444.27 543.9 1299.27 543.9"/>
  <polygon class="cls-1" points="1435.15 673.9 1078.9 1343.9 1223.9 1343.9 1580.15 673.9 1435.15 673.9"/>
</svg>